<svg xmlns="http://www.w3.org/2000/svg" aria-hidden="true" style="position:absolute;width:0;height:0;overflow:hidden">
  <defs>
    <symbol id="icon-youtube" viewBox="0 0 32 32">
      <path d="M24.24 6c-1.36-.08-4.16-.16-8.4-.16h-.56c-4.08 0-6.8.08-8.16.24-1.84.16-3.12.64-3.84 1.28-.64.56-1.12 1.6-1.28 2.96-.08.88-.16 2.72-.16 5.52v.4c0 2.64.08 4.48.24 5.36.24 1.28.64 2.24 1.44 2.8.8.64 2.16 1.04 4.08 1.2 1.36.08 4.16.16 8.4.16h.56c4.08 0 6.8-.08 8.16-.24 1.84-.16 3.12-.64 3.84-1.28.64-.56 1.12-1.6 1.28-2.96.08-.88.16-2.72.16-5.52v-.4c0-2.64-.08-4.48-.24-5.36-.24-1.28-.64-2.24-1.44-2.8-.8-.64-2.16-1.04-4.08-1.2zm-3.12 9.84-8.8 5.28V10.56l8.8 5.28z"/>
    </symbol>
    <symbol id="icon-instagram" viewBox="0 0 32 32">
      <path d="M28.718 10.756a9.264 9.264 0 0 0-.596-3.145 6.547 6.547 0 0 0-3.743-3.737 9.42 9.42 0 0 0-3.108-.596c-1.368-.061-1.801-.078-5.273-.078s-3.916 0-5.274.078a9.413 9.413 0 0 0-3.106.596 6.541 6.541 0 0 0-3.743 3.737 9.288 9.288 0 0 0-.596 3.101c-.061 1.367-.08 1.8-.08 5.265s0 3.909.08 5.265a9.335 9.335 0 0 0 .596 3.104 6.548 6.548 0 0 0 3.744 3.735 9.37 9.37 0 0 0 3.106.639c1.369.061 1.803.079 5.274.079s3.916 0 5.274-.079a9.362 9.362 0 0 0 3.108-.595 6.555 6.555 0 0 0 3.743-3.737 9.35 9.35 0 0 0 .596-3.104c.061-1.365.08-1.798.08-5.265-.003-3.466-.003-3.906-.082-5.264zM15.99 22.531c-3.631 0-6.572-2.936-6.572-6.561s2.941-6.561 6.572-6.561c3.628 0 6.572 2.936 6.572 6.561s-2.944 6.561-6.572 6.561zm6.834-11.835a1.53 1.53 0 1 1 0-3.06 1.53 1.53 0 1 1 0 3.06z"/>
      <path d="M15.992 19.976a4.004 4.004 0 1 0 0-8.009 4.004 4.004 0 0 0 0 8.009z"/>
    </symbol>
    <symbol id="icon-facebook" viewBox="0 0 32 32">
      <path d="M19.52 4.64h.96v3.6h-1.2c-.48 0-.96 0-1.2.24s-.24.48-.24 1.04v1.28h2.64v3.04h-2.64v13.2h-4.08V13.76H11.6v-3.04h2.16V9.68c0-1.76.24-3.04.72-3.6.72-1.04 2.16-1.52 4.32-1.52.24.08.48.08.72.08z"/>
    </symbol>
    <symbol id="icon-check" viewBox="0 0 43 32">
      <path stroke-linecap="round" stroke-linejoin="round" stroke-width="5.333" d="M39.111 2.667 14.666 27.112 3.555 16.001"/>
    </symbol>
    <symbol id="icon-burger" viewBox="0 0 32 32">
      <path stroke-linecap="round" stroke-width="3" d="M6.37 8.379H30.5M6.37 22.318H30.5M14.022 15.348H30.5"/>
    </symbol>
    <symbol id="icon-close" viewBox="0 0 32 32">
      <path stroke-linecap="round" stroke-linejoin="round" stroke-width="3" d="M24 8 8 24M8 8l16 16"/>
    </symbol>
    <symbol id="icon-chevron-down" viewBox="0 0 55 32">
      <path d="M30.133 19.048c-0.354 0.357-0.775 0.64-1.24 0.834s-0.962 0.293-1.465 0.293c-0.503 0-1.001-0.1-1.465-0.293s-0.886-0.477-1.24-0.834l-17.448-17.486c-0.354-0.357-0.776-0.64-1.24-0.834s-0.962-0.293-1.465-0.293c-0.503 0-1.001 0.1-1.465 0.293s-0.886 0.477-1.24 0.834c-0.71 0.714-1.108 1.679-1.108 2.686s0.398 1.972 1.108 2.686l17.486 17.486c2.143 2.14 5.048 3.342 8.076 3.342s5.933-1.202 8.076-3.342l17.486-17.486c0.704-0.71 1.1-1.667 1.105-2.667 0.003-0.501-0.093-0.998-0.283-1.462s-0.469-0.886-0.822-1.242c-0.354-0.357-0.775-0.64-1.24-0.834s-0.962-0.293-1.465-0.293-1.001 0.1-1.465 0.293c-0.464 0.193-0.886 0.477-1.239 0.834l-17.448 17.486z"></path>
    </symbol>
    <symbol id="icon-vector" viewBox="0 0 1024 2">
      <path d="M0 1H1024" stroke-opacity="0.1"/>
    </symbol>
  </defs>
</svg>